<svg width="90" height="73" viewBox="0 0 90 73" fill="none" xmlns="http://www.w3.org/2000/svg">
<path d="M86.2317 36.7074H61.2622L52.939 49.1921H36.2927L27.9695 36.7074H3" stroke="#C4C4C4" stroke-width="6" stroke-linecap="round" stroke-linejoin="round"/>
<path d="M17.3575 8.034L3 36.7073V61.6769C3 63.8843 3.8769 66.0013 5.4378 67.5622C6.9987 69.1231 9.11573 70 11.3232 70H77.9086C80.116 70 82.233 69.1231 83.7939 67.5622C85.3548 66.0013 86.2317 63.8843 86.2317 61.6769V36.7073L71.8743 8.034C71.1852 6.64731 70.123 5.48033 68.807 4.66428C67.491 3.84823 65.9735 3.41546 64.425 3.41464H24.8067C23.2583 3.41546 21.7407 3.84823 20.4247 4.66428C19.1088 5.48033 18.0465 6.64731 17.3575 8.034Z" stroke="#C4C4C4" stroke-width="6" stroke-linecap="round" stroke-linejoin="round"/>
</svg>
