<svg width="100" height="85" viewBox="0 0 100 85" fill="none" xmlns="http://www.w3.org/2000/svg">
<path d="M17.0051 15.7551C12.4275 23.262 13.0217 30.8888 13.6522 38.9804C14.1118 44.8776 16.1232 70.6781 31.3734 76.8999C37.7901 79.5178 48.0305 75.9945 68.2501 68.842C79.2982 64.9333 83.89 64.8592 88.8444 60.7841C94.9783 55.7385 102.171 45.97 99.3806 38.9801C96.8373 32.6076 88.6067 35.083 78.308 27.6044C65.7307 18.4718 69.4841 8.59195 59.6289 2.9568C47.5183 -3.96745 25.5989 1.66135 17.0051 15.7551Z" fill="#E8F5FF"/>
<path d="M34.1584 71.7972C21.6595 64.0347 18.6566 51.1959 18.0839 48.4312C15.6617 36.7358 18.3269 19.862 31.6466 11.6421C41.2907 5.69023 53.5866 6.08641 61.7861 10.1506C65.0477 11.7673 65.87 13.0763 76.8559 22.5792C87.995 32.215 89.1449 31.5189 90.4188 34.0136C95.747 44.4498 86.4937 65.164 69.8236 73.2885C68.8315 73.7722 50.8452 82.1607 34.1584 71.7972Z" fill="#ECFFF2"/>
<path d="M77.3237 16.1306C76.1116 18.1684 81.6061 24.8003 84.0228 24.0049C85.5242 23.5102 86.5615 19.9079 84.8606 17.3734C82.8282 14.3453 78.1551 14.7326 77.3237 16.1306Z" fill="#FBF3DA"/>
<path d="M14.0649 11.8906C14.0649 12.5771 13.5028 13.1334 12.809 13.1334C12.1153 13.1334 11.5532 12.5771 11.5532 11.8906C11.5532 11.204 12.1153 10.6477 12.809 10.6477C13.5027 10.6477 14.0649 11.204 14.0649 11.8906Z" fill="#FAE3A6"/>
<path d="M18.084 68.317C18.084 68.8659 17.6339 69.3113 17.0794 69.3113C16.5248 69.3113 16.0747 68.8659 16.0747 68.3171C16.0747 67.7682 16.5248 67.3228 17.0794 67.3228C17.6339 67.3227 18.084 67.7682 18.084 68.317Z" fill="#FAE3A6"/>
<path d="M2.51163 47.1884C2.51164 47.875 1.94954 48.4313 1.25582 48.4313C0.562111 48.4313 7.02194e-06 47.875 4.52328e-06 47.1884C2.02462e-06 46.5019 0.562102 45.9456 1.25581 45.9456C1.94953 45.9455 2.51163 46.5019 2.51163 47.1884Z" fill="#FDF6E2"/>
<path d="M95.4419 62.8483C95.4419 63.3971 94.9918 63.8426 94.4373 63.8426C93.8827 63.8426 93.4326 63.3972 93.4326 62.8483C93.4326 62.2994 93.8827 61.854 94.4373 61.854C94.9918 61.854 95.4419 62.2994 95.4419 62.8483Z" fill="#10A242"/>
<path d="M71.3297 6.42174C71.3297 6.83388 70.9922 7.16747 70.5762 7.16747C70.1603 7.16747 69.8228 6.83389 69.8228 6.42175C69.8228 6.00961 70.1603 5.67602 70.5762 5.67602C70.9922 5.67602 71.3297 6.00961 71.3297 6.42174Z" fill="#10A242"/>
<path d="M97.9534 17.1104C97.9534 17.3849 97.7288 17.6076 97.4511 17.6076C97.1733 17.6076 96.9487 17.3849 96.9487 17.1104C96.9487 16.836 97.1733 16.6133 97.4511 16.6133C97.7288 16.6133 97.9534 16.836 97.9534 17.1104Z" fill="#10A242"/>
<path d="M9.04165 28.7938C9.04165 29.206 8.70459 29.5395 8.28816 29.5395C7.87173 29.5395 7.53467 29.206 7.53467 28.7938C7.53467 28.3817 7.87173 28.0481 8.28816 28.0481C8.70458 28.0481 9.04165 28.3817 9.04165 28.7938Z" fill="#10A242"/>
<path d="M10.046 37.494C10.046 38.5922 9.1463 39.4826 8.03666 39.4826C6.92702 39.4826 6.02735 38.5922 6.02735 37.494C6.02735 36.3958 6.92701 35.5054 8.03665 35.5054C9.14628 35.5054 10.046 36.3958 10.046 37.494Z" fill="#FBF3DA"/>
<path d="M76.3533 12.1391C76.3533 12.9629 75.6787 13.6306 74.8463 13.6306C74.014 13.6306 73.3394 12.9629 73.3394 12.1392C73.3394 11.3154 74.014 10.6477 74.8463 10.6477C75.6787 10.6477 76.3533 11.3154 76.3533 12.1391Z" fill="#FBF3DA"/>
<path d="M7.42864 51.5936C7.95458 54.5352 11.3533 56.1042 12.256 55.4654C13.6309 54.4915 10.9861 47.1367 9.131 47.2167C8.10576 47.261 7.06947 49.5861 7.42864 51.5936Z" fill="#FBF3DA"/>
<path d="M63.8441 54.7012L63.844 84.9997L56.0243 79.7592L56.0244 54.7012L63.8441 54.7012Z" fill="#EE4439"/>
<path d="M46.0142 54.7012L46.0141 79.7592L38.1934 84.9997L38.1935 54.7012L46.0142 54.7012Z" fill="#EE4439"/>
<path d="M56.024 54.7007L56.0239 79.7592L51.019 76.402L46.014 79.7592L46.0141 54.7007L56.024 54.7007Z" fill="#FFE4E4"/>
<path d="M57.202 7.40666L52.5683 8.89666C51.5716 9.22023 50.4914 9.22023 49.4902 8.90109L44.8609 7.41456C42.8088 6.75562 40.563 7.47997 39.2925 9.20797L36.4335 13.1061C35.8174 13.9494 34.9444 14.5759 33.9472 14.8995L29.3134 16.3939C27.2658 17.0528 25.8756 18.9451 25.8756 21.0822L25.8801 25.9013C25.8801 26.9414 25.5487 27.9563 24.9326 28.8002L22.0736 32.6983C20.8036 34.4263 20.8076 36.768 22.0776 38.4915L24.9411 42.3896C25.5612 43.2334 25.8926 44.2445 25.8926 45.2884L25.8966 50.1036C25.901 52.2407 27.2908 54.133 29.3428 54.7914L33.9726 56.278C34.9738 56.5971 35.8463 57.2236 36.4669 58.0674L39.3299 61.9616C40.5999 63.6891 42.8462 64.4095 44.8983 63.751L49.5276 62.2561C50.5288 61.9365 51.605 61.932 52.6062 62.2561L57.239 63.7421C59.2915 64.4016 61.5378 63.6762 62.8039 61.9487L65.6623 58.0467C66.2829 57.2034 67.1519 56.5769 68.1531 56.2533L72.7824 54.7628C74.8345 54.0994 76.2247 52.2082 76.2202 50.071L76.2162 45.2514C76.2162 44.2114 76.5511 43.1959 77.1677 42.357L80.0262 38.4545C81.2922 36.727 81.2922 34.3887 80.0227 32.6607L77.1598 28.7632C76.5392 27.9237 76.2038 26.9083 76.2038 25.8683L76.1998 21.0491C76.1998 18.9115 74.8095 17.0203 72.7575 16.3653L68.1237 14.8787C67.1225 14.5551 66.254 13.9287 65.6334 13.0897L62.7704 9.19168C61.8155 7.89249 60.306 7.16274 58.7448 7.16274C58.2301 7.16275 57.7098 7.24192 57.202 7.40666Z" fill="url(#paint0_linear_62_853)"/>
<path d="M30.3145 35.9445C30.3145 46.938 39.3585 55.8882 50.4665 55.8882C61.5749 55.8882 70.6184 46.9379 70.6184 35.9444C70.6183 24.9509 61.5748 16.0007 50.4664 16.0007C39.3584 16.0007 30.3145 24.951 30.3145 35.9445Z" fill="url(#paint1_linear_62_853)"/>
<path d="M50.4665 14.6535C38.5829 14.6535 28.9536 24.1836 28.9537 35.9447C28.9537 47.7063 38.583 57.2358 50.4666 57.2358C62.3501 57.2358 71.9794 47.7062 71.9794 35.9446C71.9793 24.1835 62.35 14.6535 50.4665 14.6535ZM50.4666 55.1503C39.77 55.1503 31.0609 46.5315 31.0609 35.9447C31.0609 25.3584 39.7699 16.7395 50.4665 16.7395C61.1635 16.7395 69.8721 25.3583 69.8721 35.9446C69.8722 46.5314 61.1636 55.1503 50.4666 55.1503Z" fill="white"/>
<path d="M50.4666 13.8347C38.1259 13.8347 28.1265 23.7306 28.1265 35.9441C28.1266 48.1581 38.126 58.0545 50.4667 58.0545C62.8074 58.0545 72.8068 48.158 72.8068 35.944C72.8068 23.7305 62.8073 13.8346 50.4666 13.8347ZM50.4667 55.8883C39.3587 55.8884 30.3148 46.9381 30.3147 35.9441C30.3147 24.9506 39.3586 16.0008 50.4666 16.0008C61.5751 16.0008 70.6186 24.9505 70.6186 35.944C70.6186 46.938 61.5752 55.8883 50.4667 55.8883Z" fill="#0B662A"/>
<path d="M63.2187 33.0574L45.3951 47.3913C44.7173 47.9367 43.7221 47.8418 43.1621 47.1784L36.76 39.5927C35.9586 38.6431 36.0872 37.2304 37.0472 36.4386C38.0066 35.6479 39.4327 35.7768 40.2316 36.7268L43.7604 40.9209C44.3198 41.5863 45.3156 41.6826 45.9943 41.1363L60.3642 29.5807C61.3341 28.8008 62.7591 28.9469 63.5471 29.9068C64.3357 30.8667 64.1886 32.2775 63.2187 33.0574Z" fill="#17AC4A"/>
<path d="M63.2187 31.4194L45.3951 45.7534C44.7173 46.2987 43.7221 46.2038 43.1621 45.5405L36.76 37.9548C35.9586 37.0052 36.0872 35.5924 37.0472 34.8007C38.0066 34.01 39.4327 34.1388 40.2316 35.0889L43.7604 39.283C44.3198 39.9483 45.3156 40.0447 45.9943 39.4984L60.3642 27.9428C61.3341 27.1629 62.7591 27.3089 63.5471 28.2688C64.3357 29.2287 64.1886 30.6395 63.2187 31.4194Z" fill="white"/>
<defs>
<linearGradient id="paint0_linear_62_853" x1="50.1605" y1="10.5017" x2="50.9256" y2="60.1684" gradientUnits="userSpaceOnUse">
<stop stop-color="#3EEA79"/>
<stop offset="0.48" stop-color="#27D763"/>
<stop offset="1" stop-color="#10A242"/>
</linearGradient>
<linearGradient id="paint1_linear_62_853" x1="50.5141" y1="15.2911" x2="51.0359" y2="56.3521" gradientUnits="userSpaceOnUse">
<stop stop-color="#23BD59"/>
<stop offset="0.48" stop-color="#128339"/>
<stop offset="1" stop-color="#065622"/>
</linearGradient>
</defs>
</svg>
